<?xml version="1.0" encoding="utf-8"?>
<!-- Generator: Adobe Illustrator 26.0.0, SVG Export Plug-In . SVG Version: 6.00 Build 0)  -->
<svg version="1.1" id="Layer_1" xmlns="http://www.w3.org/2000/svg" xmlns:xlink="http://www.w3.org/1999/xlink" x="0px" y="0px"
	 viewBox="0 0 1080 1080" style="enable-background:new 0 0 1080 1080;" xml:space="preserve">
<style type="text/css">
	.st0{fill:#046789;}
</style>
<g>
	<path class="st0" d="M871.55,523.89c-0.07-18.24-5.57-34.92-16.26-49.71c-4.69-6.52-10.03-12.22-16.06-17.1
		c-4.85-4.04-10.13-7.53-15.83-10.55c-4.07-2.15-8.14-4.27-12.22-6.45c-24.5-12.93-48.83-26.22-73.3-39.26
		c-31.99-17.04-64.01-33.94-96-50.88c-26.94-14.24-53.75-28.63-80.69-42.81c-32.8-17.1-65.54-34.27-98.48-50.88
		c-0.36-0.2-0.68-0.39-1.04-0.55c-12.22-6.16-24.53-9.19-36.91-9.19c-2.18,0-4.37,0.1-6.55,0.33c-9.06,0.72-18.11,3.09-27.2,7.04
		c-3.91,1.95-7.75,4.2-11.24,6.58c-1.08,0.72-2.12,1.43-3.13,2.15c-0.36,0.26-0.72,0.52-1.08,0.78c-3.81,2.83-7.1,5.57-9.61,7.72
		c-9.22,9.02-15.38,19.06-19.19,29.91c-4.66,13.16-5.8,27.53-4.69,42.71h19.32c8.18,0,16.35-0.03,24.53-0.03
		c8.14,0,16.32,0.03,24.5,0.1h0.29c2.96,0,3.88-1.01,3.68-4.04c-0.23-3.16-0.13-6.35,0-9.58c0.2-6.58,4.2-10.65,9.55-10.65
		c1.73,0,3.55,0.42,5.47,1.3c1.3,0.72,2.7,1.27,4.04,1.95c37.63,19.55,75.19,39.32,112.88,58.64c4.17,2.18,5.38,4.53,5.38,9.09
		c-0.13,101.28-0.07,202.63-0.07,303.94c0,1.11,0.13,2.28-0.07,3.42c-0.36,2.38,0.65,3.06,2.8,3.06h0.33
		c2.08-0.03,4.14-0.07,6.22-0.07c4.14,0,8.27,0.07,12.41,0.07c9.09,0,18.21-0.03,27.33-0.03c6.84,0,13.65,0,20.49,0.1
		c3.23,0,4.33-0.98,3.91-4.1c-0.13-1.14,0-2.25,0-3.36V430.07c0-2.02-0.36-4.07,0.49-6.42c3.23,1.66,6.35,3.13,9.48,4.79
		c19.77,10.55,39.52,21.11,59.29,31.63c31.34,16.74,62.61,33.52,94.02,50.07c7.46,3.97,10.68,9.55,10.62,17.98
		c-0.23,31.5-0.07,63.04-0.07,94.54c0,4.95,0,4.95,4.82,4.95h31.73h19.84h11.47c0.94,0,1.73,0.03,2.38,0.03
		c2.93,0,2.51-0.39,2.51-4.72C871.71,589.92,871.84,556.89,871.55,523.89z M381.53,328.2c-9.94,0-18.01-8.01-18.01-18.02
		c0-9.97,8.08-17.98,18.01-17.98c9.97,0,17.98,8.01,17.98,17.98C399.51,320.19,391.5,328.2,381.53,328.2z"/>
	<path class="st0" d="M330.13,816.2c14.17-7.56,28.7-14.56,42.25-23.13c27.07-17.07,41.8-41.96,41.89-74.18
		c0.26-116.17,0.1-232.3,0.1-348.47v-6.61c-12.64,0-25.05-0.03-37.4-0.03c-9.51,0-19.02,0-28.5,0.03h-0.16
		c-1.4,0-2.48-0.03-3.36-0.03c-3.62,0-3.03,0.59-3.09,6.58c-0.03,1.3,0,2.64,0,3.94c0.03,112.39,0.07,224.81,0.07,337.2
		c0,1.5,0.03,3,0,4.53c-0.03,8.11-3.88,13.71-11.04,17.4c-9.81,5.05-19.42,10.42-29.22,15.47c-5.86,3.03-11.4,6.74-18.08,9.12
		c0.36-13.23-0.78-25.96-0.81-38.7c-0.1-51.96-0.68-103.95-1.34-155.91c-0.07-6.74-0.1-13.52-0.1-20.26
		c-0.03-4.07,0.23-4.5-3.06-4.5c-0.46,0-1.01,0.03-1.63,0.03c-21.21,0.26-42.41,0.59-63.62,0.81c-5.34,0.07-4.72,0.16-4.72,5.08
		c-0.07,15.93,0.39,31.86,0.81,47.82c0.62,24.5,0.33,49.09,0.81,73.62c0.03,0.98,0.03,1.92,0.07,2.9
		c0.39,17.43,0.49,34.86,0.49,52.29c0,12.97-0.03,25.93-0.03,38.9c0,5.67,0.49,11.3,1.56,16.74c6.81,34.76,37.01,56.65,68.57,56.65
		c4.92,0,9.9-0.52,14.79-1.66c3.84-0.85,7.62-2.02,11.34-3.58c3.26-1.37,6.39-2.9,9.51-4.5
		C320.91,821.32,325.47,818.68,330.13,816.2z"/>
</g>
</svg>
