<?xml version="1.0" encoding="utf-8"?>
<!-- Generator: Adobe Illustrator 26.0.0, SVG Export Plug-In . SVG Version: 6.00 Build 0)  -->
<svg version="1.1" id="Layer_1" xmlns="http://www.w3.org/2000/svg" xmlns:xlink="http://www.w3.org/1999/xlink" x="0px" y="0px"
	 viewBox="0 0 1080 1080" style="enable-background:new 0 0 1080 1080;" xml:space="preserve">
<style type="text/css">
	.st0{fill:#046789;}
</style>
<g>
	<g>
		<path class="st0" d="M318.46,535.21c-0.02-5.51-1.68-10.54-4.91-15.01c-1.42-1.97-3.03-3.69-4.85-5.16
			c-1.47-1.22-3.06-2.27-4.78-3.19c-1.23-0.65-2.46-1.29-3.69-1.95c-7.4-3.9-14.74-7.92-22.13-11.85
			c-9.66-5.14-19.33-10.25-28.99-15.36c-8.13-4.3-16.23-8.65-24.36-12.92c-9.9-5.16-19.79-10.35-29.73-15.36
			c-0.11-0.06-0.21-0.12-0.31-0.17c-3.69-1.86-7.41-2.77-11.14-2.77c-0.66,0-1.32,0.03-1.98,0.1c-2.73,0.22-5.47,0.93-8.21,2.12
			c-1.18,0.59-2.34,1.27-3.39,1.99c-0.32,0.22-0.64,0.43-0.94,0.65c-0.11,0.08-0.22,0.16-0.32,0.24c-1.15,0.86-2.14,1.68-2.9,2.33
			c-2.78,2.72-4.64,5.75-5.79,9.03c-1.41,3.97-1.75,8.31-1.42,12.89h5.83c2.47,0,4.94-0.01,7.41-0.01c2.46,0,4.93,0.01,7.4,0.03
			h0.09c0.9,0,1.17-0.3,1.11-1.22c-0.07-0.95-0.04-1.92,0-2.89c0.06-1.99,1.27-3.22,2.88-3.22c0.52,0,1.07,0.13,1.65,0.39
			c0.39,0.22,0.82,0.38,1.22,0.59c11.36,5.9,22.7,11.87,34.08,17.7c1.26,0.66,1.62,1.37,1.62,2.74
			c-0.04,30.58-0.02,61.18-0.02,91.77c0,0.33,0.04,0.69-0.02,1.03c-0.11,0.72,0.2,0.92,0.85,0.92h0.1c0.63-0.01,1.25-0.02,1.88-0.02
			c1.25,0,2.5,0.02,3.75,0.02c2.74,0,5.5-0.01,8.25-0.01c2.07,0,4.12,0,6.19,0.03c0.97,0,1.31-0.3,1.18-1.24
			c-0.04-0.34,0-0.68,0-1.01v-79.54c0-0.61-0.11-1.23,0.15-1.94c0.97,0.5,1.92,0.94,2.86,1.45c5.97,3.19,11.93,6.37,17.9,9.55
			c9.46,5.06,18.9,10.12,28.39,15.12c2.25,1.2,3.23,2.88,3.21,5.43c-0.07,9.51-0.02,19.03-0.02,28.54c0,1.5,0,1.5,1.46,1.5h9.58
			h5.99h3.46c0.29,0,0.52,0.01,0.72,0.01c0.89,0,0.76-0.12,0.76-1.43C318.51,555.15,318.55,545.18,318.46,535.21z M170.5,476.13
			c-3,0-5.44-2.42-5.44-5.44c0-3.01,2.44-5.43,5.44-5.43c3.01,0,5.43,2.42,5.43,5.43C175.93,473.71,173.51,476.13,170.5,476.13z"/>
		<path class="st0" d="M154.98,623.47c4.28-2.28,8.67-4.4,12.76-6.98c8.17-5.15,12.62-12.67,12.65-22.4
			c0.08-35.07,0.03-70.14,0.03-105.21v-2c-3.82,0-7.56-0.01-11.29-0.01c-2.87,0-5.74,0-8.61,0.01h-0.05c-0.42,0-0.75-0.01-1.01-0.01
			c-1.09,0-0.91,0.18-0.93,1.99c-0.01,0.39,0,0.8,0,1.19c0.01,33.93,0.02,67.88,0.02,101.81c0,0.45,0.01,0.9,0,1.37
			c-0.01,2.45-1.17,4.14-3.33,5.25c-2.96,1.52-5.86,3.15-8.82,4.67c-1.77,0.91-3.44,2.04-5.46,2.75c0.11-3.99-0.24-7.84-0.25-11.69
			c-0.03-15.69-0.21-31.39-0.4-47.07c-0.02-2.04-0.03-4.08-0.03-6.12c-0.01-1.23,0.07-1.36-0.92-1.36c-0.14,0-0.3,0.01-0.49,0.01
			c-6.4,0.08-12.81,0.18-19.21,0.25c-1.61,0.02-1.43,0.05-1.43,1.53c-0.02,4.81,0.12,9.62,0.25,14.44c0.19,7.4,0.1,14.82,0.25,22.23
			c0.01,0.3,0.01,0.58,0.02,0.88c0.12,5.26,0.15,10.52,0.15,15.79c0,3.91-0.01,7.83-0.01,11.74c0,1.71,0.15,3.41,0.47,5.06
			c2.06,10.49,11.17,17.1,20.7,17.1c1.49,0,2.99-0.16,4.47-0.5c1.16-0.26,2.3-0.61,3.42-1.08c0.98-0.41,1.93-0.88,2.87-1.36
			C152.2,625.02,153.58,624.22,154.98,623.47z"/>
	</g>
	<g>
		<path class="st0" d="M575.53,496.15c0-0.84-0.04-1.68,0-2.51c0.07-1.45-0.61-1.95-2.02-1.91c-2.51,0.07-5.03-0.01-7.54,0.02
			c-5.45,0.06-4.82-0.74-4.83,4.96c-0.02,17.72-0.01,35.43-0.01,54.15c-1.03-2.34-1.75-3.81-2.34-5.32
			c-6.13-15.76-12.15-31.56-18.39-47.27c-3.2-8.05-0.94-6.3-9.27-6.51c-1.26-0.03-2.52-0.03-3.77,0c-2.9,0.07-2.96,0.08-2.96,3.05
			c-0.02,31.71,0,63.43-0.04,95.14c0,2.04,0.35,3.08,2.72,2.9c2.78-0.21,5.58-0.04,8.38-0.05c4.11-0.01,3.85,0.41,3.85-3.81
			c0-17.04,0-34.09,0.02-51.13c0-1.35-0.28-2.73,0.26-4.09c1.08,0.5,1.07,1.59,1.4,2.46c6.2,16.2,12.36,32.41,18.58,48.61
			c0.98,2.57,1.16,5.93,3.27,7.45c2.16,1.55,5.42,0.46,8.19,0.48c4.91,0.04,4.49,0.76,4.49-4.4
			C575.54,557.62,575.53,526.89,575.53,496.15z"/>
		<path class="st0" d="M630.45,491.75c-11.16-0.02-22.33,0.19-33.49-0.09c-5.44-0.13-9.12,2.36-9.01,9.12
			c0.21,13.81,0.06,27.62,0.06,41.43c0,3.77,0,7.53,0,11.3c0,10.46-0.04,20.93,0.02,31.39c0.03,5.04,2.29,7.41,7.24,7.86
			c0.83,0.07,1.67,0.02,2.51,0.02c10.33,0,20.65,0.01,30.98-0.01c1.53,0,3.08-0.07,4.58-0.34c3.31-0.6,4.93-2.19,5.43-5.46
			c0.29-1.92,0.29-3.89,0.29-5.84c0.02-25.81,0.01-51.62,0.01-77.43c0-1.39-0.01-2.79-0.12-4.18
			C638.48,493.67,636.4,491.76,630.45,491.75z M624.06,527.16c0,16.34,0,32.67,0,49.01c0,3.77,0.31,3.61-3.63,3.61
			c-4.75-0.01-9.5,0.02-14.24-0.01c-2.95-0.02-3.01-0.06-3.02-2.95c-0.03-11.59-0.01-23.18-0.01-34.77c0-11.45-0.01-22.9,0.01-34.35
			c0.01-2.91,0.06-2.93,2.98-2.94c5.03-0.02,10.06,0.08,15.08-0.05c2.11-0.05,2.93,0.46,2.88,2.76
			C623.96,514.03,624.06,520.6,624.06,527.16z"/>
		<path class="st0" d="M742.11,491.75c-10.89-0.02-21.78,0.14-32.67-0.06c-6.83-0.13-9.74,2.01-9.6,9.76c0,0.14,0,0.28,0,0.42
			c0,26.94,0.01,53.89-0.01,80.83c0,1.68,0.21,3.31,0.45,4.97c0.35,2.39,1.8,3.74,3.93,4.41c1.31,0.41,2.73,0.67,4.1,0.68
			c11.31,0.05,22.62,0.12,33.93-0.01c6.35-0.07,8.45-2.4,8.46-8.74c0.02-13.82,0.01-27.64,0.01-41.46c0-14.1,0.02-28.2-0.01-42.3
			C750.69,493.95,748.46,491.76,742.11,491.75z M733.44,579.8c-5.16-0.07-10.33,0-15.49-0.04c-3.17-0.02-3.22-0.06-3.23-3.2
			c-0.02-11.58-0.01-23.16-0.01-34.74c0-11.3-0.02-22.6,0.01-33.91c0.01-3.12,0.06-3.14,3.26-3.15c4.75-0.01,9.49,0,14.23,0.01
			c3.33,0,3.37,0.01,3.37,3.39c0.01,19.67,0.01,39.35,0.01,59.02c0,3.49-0.06,6.98,0.02,10.46
			C735.65,579.28,735.06,579.83,733.44,579.8z"/>
		<path class="st0" d="M809.86,538.57c-4.47,0.13-8.94-0.05-13.41,0.07c-3.16,0.08-6.36-0.55-9.48,0.42
			c-0.6,3.31-0.08,6.66-0.29,9.98c-0.1,1.58,0.42,2.27,2.11,2.18c2.23-0.12,4.47,0.05,6.7-0.05c1.67-0.08,2.16,0.61,2.15,2.19
			c-0.05,8.1-0.06,16.2,0,24.3c0.01,1.66-0.61,2.16-2.2,2.14c-4.89-0.07-9.78-0.13-14.66,0.02c-2.26,0.07-2.84-0.78-2.82-2.9
			c0.1-7.68,0.04-15.36,0.04-23.04c0-15.22-0.01-30.44,0.01-45.66c0-3.41,0.05-3.42,3.42-3.43c4.47-0.01,8.94,0.11,13.41-0.05
			c2.18-0.08,2.92,0.56,2.83,2.78c-0.16,4.18,0.06,8.38-0.09,12.56c-0.08,2.09,0.68,2.63,2.64,2.55c3.35-0.14,6.7-0.09,10.05-0.02
			c1.62,0.04,2.55-0.2,2.52-2.21c-0.1-7.26,0.04-14.52-0.07-21.78c-0.07-4.22-2.62-6.8-6.84-6.84c-12.01-0.09-24.02-0.1-36.03,0
			c-3.91,0.03-6.12,2.24-6.62,6.14c-0.23,1.79-0.31,3.62-0.31,5.42c-0.03,12.99-0.01,25.97-0.01,38.96c0,5.73,0,11.45,0,17.18
			c0,8.1-0.12,16.2,0.04,24.3c0.14,6.83,2.37,8.87,9.17,9c0.56,0.01,1.12,0,1.68,0c9.08,0,18.16,0.01,27.23-0.01
			c1.81,0,3.63-0.01,5.43-0.23c4.29-0.54,6.26-2.58,6.28-6.88c0.07-14.8-0.02-29.6,0.07-44.41
			C812.81,538.91,811.9,538.51,809.86,538.57z"/>
		<path class="st0" d="M961.08,560.19c0.08-4.24-1.53-7.47-4.54-10.28c-9.17-8.56-18.28-17.19-27.4-25.8
			c-0.68-0.65-1.57-1.13-1.57-2.32c0.03-5.7,0.01-11.4,0.01-17.34c5.42,0,10.43-0.04,15.45,0.01c2.85,0.03,2.9,0.09,2.93,3.15
			c0.04,4.47,0.07,8.94-0.02,13.4c-0.03,1.72,0.38,2.54,2.3,2.47c3.49-0.12,6.98-0.12,10.47,0c1.86,0.06,2.37-0.66,2.35-2.44
			c-0.08-7.4,0.04-14.8-0.06-22.2c-0.06-4.58-2.64-7.05-7.41-7.08c-11.31-0.07-22.62-0.08-33.93,0c-4.72,0.03-7.16,2.53-7.21,7.32
			c-0.09,8.38-0.04,16.75-0.02,25.13c0.01,2.78,1.01,5.16,3.04,7.1c1.41,1.35,2.77,2.76,4.19,4.1c8.11,7.65,16.23,15.28,24.35,22.93
			c1,0.94,2.03,1.78,2,3.45c-0.09,5.3-0.09,10.61-0.01,15.92c0.03,1.7-0.71,2.16-2.24,2.14c-4.47-0.04-8.94-0.11-13.4,0.03
			c-2.16,0.07-2.91-0.6-2.84-2.82c0.15-5.02-0.05-10.05,0.09-15.08c0.06-2.07-0.68-2.64-2.65-2.56c-3.35,0.14-6.71,0.17-10.05-0.01
			c-2.15-0.12-2.54,0.74-2.52,2.65c0.09,7.4,0.02,14.8,0.04,22.2c0.02,5.91,2.06,8.35,7.89,8.45c11.03,0.19,22.06,0.18,33.09-0.01
			c5.51-0.1,7.61-2.62,7.62-8.23C961.05,576.38,960.92,568.28,961.08,560.19z"/>
		<path class="st0" d="M510.34,558.55c-3.35,0.14-6.71,0.18-10.05-0.01c-2.38-0.14-2.72,0.93-2.68,2.95
			c0.11,5.3-0.02,10.61,0.06,15.92c0.03,1.81-0.61,2.44-2.42,2.4c-4.61-0.1-9.22-0.01-13.82-0.04c-3.15-0.02-3.2-0.05-3.21-3.16
			c-0.02-11.45-0.01-22.9-0.01-34.35c0-4.89,0-9.77,0-14.66c0-6.7,0.09-13.41-0.05-20.11c-0.05-2.25,0.69-2.83,2.84-2.75
			c4.6,0.16,9.22,0.17,13.82,0.03c2.13-0.06,2.95,0.47,2.87,2.75c-0.17,4.74-0.07,9.49-0.04,14.24c0.02,3.09,0.06,3.11,3.28,3.15
			c2.65,0.03,5.31,0,7.96,0.01c3.96,0.01,3.71,0.32,3.71-3.52c0.01-7.12,0.03-14.24-0.01-21.36c-0.03-5.9-2.46-8.27-8.47-8.28
			c-10.75-0.02-21.51-0.01-32.26,0c-6.61,0.01-8.78,2.15-8.79,8.74c-0.01,27.93-0.01,55.85,0,83.78c0,5.9,2.1,8.12,7.9,8.51
			c0.7,0.05,1.4,0.01,2.09,0.01c9.78,0,19.55,0.01,29.33-0.01c1.25,0,2.52-0.02,3.75-0.21c4.35-0.66,6.38-2.87,6.43-7.31
			c0.09-8.1-0.02-16.2,0.05-24.3C512.65,559.24,512.25,558.47,510.34,558.55z"/>
		<path class="st0" d="M889.52,516.99c-1.4-7.35-2.78-14.7-4.21-22.05c-0.64-3.29-0.67-3.3-3.87-3.32
			c-3.21-0.02-6.43,0.16-9.63-0.06c-2.43-0.17-3.39,0.59-3.85,3.06c-2.67,14.44-5.51,28.84-8.33,43.25
			c-2.42,12.38-4.91,24.74-7.32,37.12c-0.98,5.03-1.8,10.09-2.78,15.11c-0.38,1.96,0.06,2.84,2.26,2.73
			c3.06-0.15,6.16-0.23,9.21,0.02c2.37,0.2,3.42-0.89,3.5-2.92c0.19-4.47,1.75-8.73,1.89-13.19c0.07-2.24,0.97-3.18,3.36-3.09
			c4.46,0.17,8.93,0.02,13.4,0.06c2.99,0.02,3.05,0.06,3.32,3.27c0.35,4.16,1.45,8.2,1.85,12.37c0.32,3.44,0.6,3.42,4.23,3.43
			c3.62,0.01,7.25,0,11.37,0c-2.78-14.7-5.51-29.12-8.24-43.54C893.63,538.49,891.57,527.74,889.52,516.99z M881.93,560.53
			c-4.16-0.01-8.33,0-12.93,0c2.44-14.86,4.78-29.1,7.12-43.34c0.25,0.03,0.49,0.06,0.74,0.09c1.53,9.79,3.05,19.58,4.61,29.37
			c0.61,3.83,1.24,7.66,2.05,11.44C883.86,559.67,883.73,560.53,881.93,560.53z"/>
		<path class="st0" d="M452.73,582.43c-0.04-2.86-0.06-2.9-3.06-2.92c-6.85-0.03-13.69,0.01-20.54-0.02
			c-3.21-0.01-3.28-0.06-3.29-3.17c-0.04-8.52,0.06-17.04-0.06-25.56c-0.03-2.35,0.65-3.15,3.04-3.08
			c5.72,0.15,11.46-0.01,17.18,0.08c1.92,0.03,2.8-0.41,2.65-2.55c-0.19-2.64-0.17-5.31-0.01-7.96c0.14-2.2-0.64-2.9-2.84-2.85
			c-5.58,0.13-11.18-0.03-16.76,0.08c-2.18,0.04-3.3-0.39-3.26-2.93c0.13-7.96,0.11-15.92,0-23.88c-0.03-2.3,0.92-2.78,2.98-2.72
			c4.47,0.13,8.94,0.07,13.41,0.03c3.19-0.03,6.38-0.14,9.57-0.21c1.06-3.25,0.32-6.59,0.44-9.88c0.11-3.09-0.03-3.13-3.22-3.13
			c-11.18-0.02-22.35-0.01-33.53-0.01c-4.37,0-4.49,0-4.51,4.51c-0.06,15.22-0.02,30.45-0.02,45.67c-0.01,0-0.02,0-0.03,0
			c0,7.82,0,15.64,0,23.46c0,7.68-0.12,15.37,0.05,23.05c0.11,4.87-0.49,4.32,4.25,4.34c6.57,0.02,13.13,0.01,19.7,0.01
			c5.17,0,10.34-0.06,15.51,0.03c1.84,0.03,2.47-0.61,2.39-2.43C452.65,587.74,452.76,585.09,452.73,582.43z"/>
		<path class="st0" d="M399.72,491.7c-9.36,0.1-18.72,0.04-28.08,0.04c-4.89,0-9.78,0.06-14.67-0.03c-1.78-0.03-2.52,0.5-2.45,2.36
			c0.11,2.93,0.1,5.87,0,8.8c-0.06,1.68,0.63,2.17,2.22,2.13c3.49-0.08,6.98-0.03,10.48-0.02c4.28,0.01,3.89-0.31,3.89,3.75
			c0.01,13.27,0,26.54,0,39.8c0,9.08,0,18.16,0,27.24c0,4.75,0.12,9.5-0.05,14.24c-0.08,2.26,0.74,2.9,2.87,2.81
			c3.21-0.14,6.43-0.17,9.63,0.01c2.12,0.12,2.75-0.73,2.55-2.66c-0.09-0.83-0.01-1.67-0.01-2.51c0-25.56,0-51.12,0-76.68
			c0-0.98,0.07-1.96-0.01-2.93c-0.19-2.28,0.63-3.24,3.08-3.12c3.9,0.19,7.82,0,11.73,0.07c1.45,0.02,1.96-0.5,1.92-1.95
			c-0.09-2.79-0.18-5.6,0.02-8.38C403.04,492.18,401.98,491.68,399.72,491.7z"/>
		<path class="st0" d="M691.04,582.28c0-0.14-0.02-0.28,0-0.42c0.25-1.81-0.54-2.44-2.34-2.4c-4.04,0.09-8.09,0.07-12.14,0.01
			c-3.32-0.04-6.66,0.25-10.22-0.27c0-1.67,0-3.2,0-4.72c0-25.81,0-51.62,0-77.43c0-0.98-0.05-1.96,0.01-2.93
			c0.12-1.79-0.64-2.47-2.46-2.41c-3.21,0.1-6.42,0.01-9.63,0.03c-3.18,0.03-3.23,0.05-3.23,3.18c-0.01,31.53-0.01,63.06,0,94.59
			c0,3.23,0.05,3.26,3.54,3.26c8.79,0.02,17.58,0.09,26.37-0.03c3.29-0.05,6.64,0.68,9.88-0.48
			C691.3,588.95,690.92,585.61,691.04,582.28z"/>
		<path class="st0" d="M838.43,491.72c-3.63,0.08-7.26,0.07-10.88,0.01c-1.53-0.03-2.41,0.37-2.28,2.08
			c0.06,0.83,0.01,1.67,0.01,2.51c0,30.7,0,61.39,0,92.09c0,0.84,0.05,1.68,0,2.51c-0.09,1.47,0.58,1.93,2,1.89
			c3.07-0.08,6.14,0,9.21-0.03c4.16-0.04,3.92,0.71,3.92-4.11c0.01-15.49,0-30.98,0-46.47c0-15.21,0-30.42,0-45.63
			c0-0.98-0.04-1.96,0-2.93C840.47,492.23,839.88,491.69,838.43,491.72z"/>
	</g>
</g>
</svg>
